<?xml version="1.0" encoding="utf-8"?>
<!-- Generator: Adobe Illustrator 16.0.0, SVG Export Plug-In . SVG Version: 6.00 Build 0)  -->
<!DOCTYPE svg PUBLIC "-//W3C//DTD SVG 1.1//EN" "http://www.w3.org/Graphics/SVG/1.1/DTD/svg11.dtd">
<svg version="1.1" id="Layer_1" xmlns="http://www.w3.org/2000/svg" xmlns:xlink="http://www.w3.org/1999/xlink" x="0px" y="0px"
	 width="376.481px" height="385.48px" viewBox="0 0 376.481 385.48" enable-background="new 0 0 376.481 385.48"
	 xml:space="preserve">
<g>
	
		<circle fill="none" stroke="#231F20" stroke-width="5.8599" stroke-linejoin="round" stroke-miterlimit="10" stroke-dasharray="10.2548" cx="73.446" cy="75.469" r="62.627"/>
	<g>
		<g>
			<path fill="#FFFFFF" stroke="#231F20" stroke-width="5.8599" stroke-linejoin="round" stroke-miterlimit="10" d="M201.01,72.881
				c-1.247-0.305-2.242-0.562-3.599-0.562H50.9c-8.153,0-13.391,5.96-13.391,13.105v11.023v232.24h152.356V96.449V85.425
				C189.866,79.472,194.77,74.394,201.01,72.881z"/>
			<path fill="#FFFFFF" stroke="#231F20" stroke-width="5.8599" stroke-linejoin="round" stroke-miterlimit="10" d="
				M201.172,308.823c1.25,0.307,2.722,0.82,4.083,0.82h146.507c8.148,0,13.9-6.475,13.9-13.621v-11.021V51.81H211.84v233.191v11.021
				C211.84,301.976,207.41,307.319,201.172,308.823z"/>
			<path fill="#A8AAAD" stroke="#231F20" stroke-width="5.8599" stroke-linejoin="round" stroke-miterlimit="10" d="M200.85,72.966
				c-6.237,1.508-10.984,6.506-10.984,12.459v11.023v188.552v11.021c0,5.953,4.747,10.951,10.987,12.457
				c6.241-1.506,10.987-6.504,10.987-12.457v-11.021V96.449V85.425C211.84,79.472,207.094,74.474,200.85,72.966z"/>
			
				<line fill="#F2F2F2" stroke="#231F20" stroke-width="5.8599" stroke-linejoin="round" stroke-miterlimit="10" x1="189.866" y1="91.364" x2="200.121" y2="91.364"/>
			
				<line fill="#F2F2F2" stroke="#231F20" stroke-width="5.8599" stroke-linejoin="round" stroke-miterlimit="10" x1="189.866" y1="289.134" x2="200.121" y2="289.134"/>
		</g>
		
			<line fill="#F2F2F2" stroke="#231F20" stroke-width="5.8599" stroke-linejoin="round" stroke-miterlimit="10" x1="58.019" y1="101.619" x2="81.458" y2="101.619"/>
		
			<line fill="#F2F2F2" stroke="#231F20" stroke-width="5.8599" stroke-linejoin="round" stroke-miterlimit="10" x1="58.019" y1="116.268" x2="169.356" y2="116.268"/>
		
			<line fill="#F2F2F2" stroke="#231F20" stroke-width="5.8599" stroke-linejoin="round" stroke-miterlimit="10" x1="58.019" y1="284.739" x2="87.318" y2="284.739"/>
		
			<line fill="#F2F2F2" stroke="#231F20" stroke-width="5.8599" stroke-linejoin="round" stroke-miterlimit="10" x1="103.433" y1="284.739" x2="129.802" y2="284.739"/>
		
			<line fill="#F2F2F2" stroke="#231F20" stroke-width="5.8599" stroke-linejoin="round" stroke-miterlimit="10" x1="235.28" y1="237.86" x2="292.415" y2="237.86"/>
		
			<line fill="#F2F2F2" stroke="#231F20" stroke-width="5.8599" stroke-linejoin="round" stroke-miterlimit="10" x1="304.133" y1="237.86" x2="321.713" y2="237.86"/>
		
			<line fill="#F2F2F2" stroke="#231F20" stroke-width="5.8599" stroke-linejoin="round" stroke-miterlimit="10" x1="343.688" y1="278.88" x2="299.739" y2="278.88"/>
		
			<line fill="#F2F2F2" stroke="#231F20" stroke-width="5.8599" stroke-linejoin="round" stroke-miterlimit="10" x1="343.688" y1="258.37" x2="235.28" y2="258.37"/>
		
			<line fill="#F2F2F2" stroke="#231F20" stroke-width="5.8599" stroke-linejoin="round" stroke-miterlimit="10" x1="289.485" y1="278.88" x2="274.834" y2="278.88"/>
		
			<line fill="#F2F2F2" stroke="#231F20" stroke-width="5.8599" stroke-linejoin="round" stroke-miterlimit="10" x1="268.975" y1="72.32" x2="292.415" y2="72.32"/>
		
			<line fill="#F2F2F2" stroke="#231F20" stroke-width="5.8599" stroke-linejoin="round" stroke-miterlimit="10" x1="268.975" y1="86.969" x2="292.415" y2="86.969"/>
		<path fill="#F6B731" d="M261.02,78.191c0,7.437-6.027,13.463-13.467,13.463c-7.436,0-13.465-6.026-13.465-13.463
			c0-7.438,6.029-13.468,13.465-13.468C254.993,64.723,261.02,70.752,261.02,78.191z"/>
		<rect x="235.28" y="106.013" fill="#E7E7E7" width="108.408" height="38.09"/>
		<rect x="235.28" y="154.358" fill="#E7E7E7" width="60.064" height="61.528"/>
		
			<line fill="#F2F2F2" stroke="#231F20" stroke-width="5.8599" stroke-linejoin="round" stroke-miterlimit="10" x1="305.598" y1="163.147" x2="343.688" y2="163.147"/>
		
			<line fill="#F2F2F2" stroke="#231F20" stroke-width="5.8599" stroke-linejoin="round" stroke-miterlimit="10" x1="305.598" y1="177.798" x2="343.688" y2="177.798"/>
		
			<line fill="#F2F2F2" stroke="#231F20" stroke-width="5.8599" stroke-linejoin="round" stroke-miterlimit="10" x1="305.598" y1="192.446" x2="343.688" y2="192.446"/>
		
			<line fill="#F2F2F2" stroke="#231F20" stroke-width="5.8599" stroke-linejoin="round" stroke-miterlimit="10" x1="305.598" y1="207.097" x2="343.688" y2="207.097"/>
		<g>
			<path fill="#F04E25" d="M87.696,198.308c-0.065-7.326,2.354-13.205,7.251-18.244l-21.25-21.185
				c-10.875,10.876-16.341,24.779-16.406,39.429H87.696z"/>
			<path fill="#D2D3D4" d="M87.696,198.308H57.292c-0.066,14.648,5.32,28.512,16.154,39.488l21.747-21.686
				C90.253,211.171,87.762,204.167,87.696,198.308z"/>
			<path fill="#E7E7E7" d="M95.193,179.661c10.013-10.014,26.245-10.014,36.257,0c10.011,10.012,10.011,26.244,0,36.256
				c-10.013,10.012-26.244,10.012-36.257,0l-21.747,21.748c0.086,0.088,0.165,0.178,0.252,0.264
				c21.883,21.883,57.361,21.885,79.246,0c21.884-21.883,21.883-57.361,0-79.245c-21.883-21.883-57.361-21.885-79.246,0
				l21.25,21.249C95.033,179.845,95.106,179.749,95.193,179.661z"/>
		</g>
		
			<line fill="#F2F2F2" stroke="#231F20" stroke-width="5.8599" stroke-linejoin="round" stroke-miterlimit="10" x1="94.948" y1="179.933" x2="66.564" y2="152.405"/>
		
			<line fill="#F2F2F2" stroke="#231F20" stroke-width="5.8599" stroke-linejoin="round" stroke-miterlimit="10" x1="50.694" y1="198.308" x2="87.318" y2="198.308"/>
	</g>
	<g>
		<g>
			<g>
				<g>
					<path fill="#818285" d="M276.299,182.782c0-5.875-4.77-10.311-10.641-10.311H137.941c-5.879,0-11.069,4.436-11.069,10.311
						v32.174h149.427V182.782z"/>
					<path fill="#818285" d="M126.872,213.956V362.71c0,5.879,5.19,10.928,11.069,10.928h127.717
						c5.871,0,10.641-5.049,10.641-10.928V213.956H126.872z"/>
				</g>
				<g>
					
						<rect x="141.522" y="224.677" fill="#A8AAAD" stroke="#231F20" stroke-width="5.8599" stroke-linejoin="round" stroke-miterlimit="10" width="21.975" height="11.719"/>
					
						<rect x="173.751" y="224.677" fill="#A8AAAD" stroke="#231F20" stroke-width="5.8599" stroke-linejoin="round" stroke-miterlimit="10" width="23.439" height="11.719"/>
					
						<rect x="207.446" y="224.677" fill="#A8AAAD" stroke="#231F20" stroke-width="5.8599" stroke-linejoin="round" stroke-miterlimit="10" width="21.975" height="11.719"/>
					
						<rect x="239.674" y="224.677" fill="#A8AAAD" stroke="#231F20" stroke-width="5.8599" stroke-linejoin="round" stroke-miterlimit="10" width="21.975" height="11.719"/>
					
						<rect x="141.522" y="249.581" fill="#A8AAAD" stroke="#231F20" stroke-width="5.8599" stroke-linejoin="round" stroke-miterlimit="10" width="21.975" height="20.51"/>
					
						<rect x="173.751" y="249.581" fill="#A8AAAD" stroke="#231F20" stroke-width="5.8599" stroke-linejoin="round" stroke-miterlimit="10" width="23.439" height="20.51"/>
					
						<rect x="207.446" y="249.581" fill="#A8AAAD" stroke="#231F20" stroke-width="5.8599" stroke-linejoin="round" stroke-miterlimit="10" width="21.975" height="20.51"/>
					
						<rect x="239.674" y="249.581" fill="#A8AAAD" stroke="#231F20" stroke-width="5.8599" stroke-linejoin="round" stroke-miterlimit="10" width="21.975" height="20.51"/>
					
						<rect x="141.522" y="280.345" fill="#A8AAAD" stroke="#231F20" stroke-width="5.8599" stroke-linejoin="round" stroke-miterlimit="10" width="21.975" height="19.045"/>
					
						<rect x="173.751" y="280.345" fill="#A8AAAD" stroke="#231F20" stroke-width="5.8599" stroke-linejoin="round" stroke-miterlimit="10" width="23.439" height="19.045"/>
					
						<rect x="207.446" y="280.345" fill="#A8AAAD" stroke="#231F20" stroke-width="5.8599" stroke-linejoin="round" stroke-miterlimit="10" width="21.975" height="19.045"/>
					
						<rect x="141.522" y="309.644" fill="#A8AAAD" stroke="#231F20" stroke-width="5.8599" stroke-linejoin="round" stroke-miterlimit="10" width="21.975" height="19.045"/>
					
						<rect x="173.751" y="309.644" fill="#A8AAAD" stroke="#231F20" stroke-width="5.8599" stroke-linejoin="round" stroke-miterlimit="10" width="23.439" height="19.045"/>
					<polygon fill="#A8AAAD" stroke="#231F20" stroke-width="5.8599" stroke-linejoin="round" stroke-miterlimit="10" points="
						239.674,280.345 239.674,309.644 207.446,309.644 207.446,328.688 239.942,328.688 261.649,328.688 261.649,310.259 
						261.649,280.345 					"/>
					
						<rect x="141.522" y="340.409" fill="#A8AAAD" stroke="#231F20" stroke-width="5.8599" stroke-linejoin="round" stroke-miterlimit="10" width="21.975" height="19.045"/>
					
						<rect x="173.751" y="340.409" fill="#A8AAAD" stroke="#231F20" stroke-width="5.8599" stroke-linejoin="round" stroke-miterlimit="10" width="55.669" height="19.045"/>
					
						<rect x="239.674" y="340.409" fill="#A8AAAD" stroke="#231F20" stroke-width="5.8599" stroke-linejoin="round" stroke-miterlimit="10" width="21.975" height="19.045"/>
				</g>
			</g>
			
				<line opacity="0.5" fill="none" stroke="#231F20" stroke-width="5.8599" stroke-linejoin="round" stroke-miterlimit="10" x1="153.242" y1="186.587" x2="227.956" y2="186.587"/>
			
				<line opacity="0.5" fill="none" stroke="#231F20" stroke-width="5.8599" stroke-linejoin="round" stroke-miterlimit="10" x1="238.209" y1="186.587" x2="245.536" y2="186.587"/>
			
				<line opacity="0.5" fill="none" stroke="#231F20" stroke-width="5.8599" stroke-linejoin="round" stroke-miterlimit="10" x1="175.216" y1="198.308" x2="216.235" y2="198.308"/>
		</g>
	</g>
	<path fill="#FFFFFF" stroke="#D2D3D4" stroke-miterlimit="10" d="M117.029,103.119c5.341-8.059,8.459-17.72,8.459-28.112
		c0-28.146-22.821-50.965-50.968-50.965S23.556,46.861,23.556,75.006c0,28.148,22.818,50.967,50.965,50.967
		c9.542,0,18.467-2.629,26.104-7.192l16.405,17.118V103.119z"/>
	<g>
		<path fill="none" stroke="#231F20" stroke-width="5.8599" stroke-linejoin="round" stroke-miterlimit="10" d="M63.047,85.202
			c0,6.339,5.135,11.467,11.474,11.467s11.466-5.128,11.466-11.467c0-6.883-5.097-11.465-11.466-11.465
			c-6.368,0-11.474-4.59-11.474-11.471c0-6.338,5.135-11.467,11.474-11.467s11.466,5.129,11.466,11.467"/>
		
			<line fill="none" stroke="#231F20" stroke-width="5.8599" stroke-linejoin="round" stroke-miterlimit="10" x1="74.545" y1="50.93" x2="74.545" y2="45.071"/>
		
			<line fill="none" stroke="#231F20" stroke-width="5.8599" stroke-linejoin="round" stroke-miterlimit="10" x1="74.545" y1="103.669" x2="74.545" y2="96.344"/>
	</g>
</g>
</svg>
